<svg width="512" height="512" viewBox="0 0 512 512" fill="none" xmlns="http://www.w3.org/2000/svg">
  <rect width="512" height="512" rx="128" fill="url(#paint0_linear)"/>
  <path d="M251.75 142.1C253.95 136.5 261.05 135.5 264.45 140.25L383.45 301.25C386.35 305.15 382.4 310.8 377.35 309.8L285.5 291.5L257.45 387.25C255.45 394.05 246.05 394.95 242.85 388.75L132.85 174.75C130.35 169.8 135.25 164.2 140.4 165.95L241.6 200.2L251.75 142.1Z" fill="white"/>
  <path d="M251.75 142.1C253.95 136.5 261.05 135.5 264.45 140.25L383.45 301.25C386.35 305.15 382.4 310.8 377.35 309.8L285.5 291.5L257.45 387.25C255.45 394.05 246.05 394.95 242.85 388.75L132.85 174.75C130.35 169.8 135.25 164.2 140.4 165.95L241.6 200.2L251.75 142.1Z" fill="url(#paint1_linear)"/>
  <defs>
    <linearGradient id="paint0_linear" x1="0" y1="0" x2="512" y2="512" gradientUnits="userSpaceOnUse">
      <stop stop-color="#3B82F6"/>
      <stop offset="1" stop-color="#4F46E5"/>
    </linearGradient>
    <linearGradient id="paint1_linear" x1="258" y1="136" x2="258" y2="391" gradientUnits="userSpaceOnUse">
      <stop stop-opacity="0.3" stop-color="white"/>
      <stop offset="1" stop-opacity="0" stop-color="white"/>
    </linearGradient>
  </defs>
</svg>
